<?xml version="1.0" encoding="utf-8"?>
<!-- Generator: Adobe Illustrator 26.3.1, SVG Export Plug-In . SVG Version: 6.00 Build 0)  -->
<svg version="1.1" id="Layer_1" xmlns="http://www.w3.org/2000/svg" xmlns:xlink="http://www.w3.org/1999/xlink" x="0px" y="0px"
	 viewBox="0 0 903.8 282.4" style="enable-background:new 0 0 903.8 282.4;" xml:space="preserve">
<style type="text/css">
	.st0{fill:#025695;}
	.st1{fill:#015694;}
	.st2{fill:#045893;}
	.st3{fill:#035894;}
	.st4{fill:#005793;}
	.st5{fill:#F69A44;}
	.st6{fill:#DCE4E2;}
	.st7{fill:#035794;}
</style>
<path class="st0" d="M2.8,200.9V6.9H26l0,0c25.9,40.4,53.5,82.8,79.7,123.7l0,0L183,6.9h23.7v1.4l0.1,192.6H183
	c0,0,0.3-142.1,0-143.9l-77.3,117.9l-79.8-118v144"/>
<path class="st1" d="M739,200.9c0.5-0.9,29.1-14.6,42.3-21.8c9.5-5.2,18.3-11.4,27.5-17.1c2.7-1.7,5.6-3.1,8.5-4.7
	c0.7,14.3,27.7,22.3,38.1,11.2c4.5-5.9,10.6-19.4-3.7-30.6c-3.5-2.7-3.2-3.9,0-6.5c9.2-7.4,18.5-14.9,23-26.5
	c1.6-4.2-1.3-9.2-6.2-9.5c-5.1-0.3-10.2,0-15.2-0.5c-14.8-1.5-26.3-5-36.3-16.4c7.3-4.8,8.4-5.5,12.7-8.9
	c12.3-10.2,11.6-22.9-0.9-31.2c-6.9-4.5-12.3-7.1-21.9-10.6c-2-0.7-8.1-2.7-14.2-4.1c-1.1-0.3-4.7-1.1-5.7-1.4c0,0-2.9-3.1-9.8-6.7
	c-6.5-3.5-21.4-6.5-33.4-3.8c-7.6,1.7-12.1,4-14.3,5.2c-2.7,1.5-4.1,1.2-4.9-1.9c-0.4-1.3-5-9.3-8.5-12.2c61.3,0,122.7,0,184,0
	c0,65,0.1,133,0,198H739L739,200.9z"/>
<path class="st2" d="M698.5,200.9c-0.7-6.2,3.6-11.2,8.4-15.2c8.2-6.9,16.6-13.8,25.7-19.6c19.6-12.7,39.6-24.5,59.4-36.7
	c2.5-1.6,4.6-1.8,7.1,0.4c6.4,5.5,13,10.8,20.3,16.8c-8.5,5.6-15.8,11-23.7,15.4c-18.2,10.2-36.5,20.1-55,29.6
	c-7,3.6-9.5,4.1-17,6.8c-0.9,0.3-4.1,1.6-7.5,2.6h-17.7L698.5,200.9L698.5,200.9z"/>
<path class="st2" d="M657,128l27.7,72.9l-25.2,0.1L634,133L657,128z"/>
<path class="st3" d="M481.6,200.9l23.7-50.3l27.8-1.3l-24.2,51.6C508.8,200.9,481.6,200.9,481.6,200.9z"/>
<path class="st4" d="M262.2,200.9c0-16.3,0-32.6,0-48.9c8,0.6,16,1.2,23.9,1.8c0,15.7,0,31.4,0,47.1
	C278.2,200.9,270.2,200.9,262.2,200.9z"/>
<path class="st5" d="M770.2,97.1c-7.4,3.1-156.1,36.9-175.6,39.5c-16.6,2.1-43.2,5.9-51.9,7c-7.1,0.9-14.3,1.6-21.5,2.3
	c-13.9,1.4-27.7,2.7-41.6,3.9c-6.1,0.5-12.2,0.8-18.3,1c-9.4,0.4-18.8,0.6-28.2,1c-12.3,0.6-24.7,1.3-37.8,1.6
	c-22.4-0.5-44.3-1-65.9-1.1c-0.6,0-37.4-1.2-55.4-2.5c-7.2-0.5-14.4-1.3-21.5-2c-6.3-0.7-12.7-1.5-18.9-2.9c6.6-0.9,13-1.1,20-1.3
	c24.1,0,74.1-0.7,75.9-0.9c12.1-0.6,23.8-1.3,35.5-1.9c5.9-0.3,11.8-0.5,17.7-1.1c14.2-1.3,28.3-2.7,42.9-4.1c7.5-1,38.1-3.9,45.8-5
	c14.9-2.1,29.8-4.7,45.2-7c7.1-1.2,13.8-2.5,21-3.8c28.9-5.7,92.1-19.2,95.4-20c10.9-2.8,21.9-5.3,32.8-8.2
	c12-3.2,24.1-6.3,35.9-10.3c11.9-4,23.4-9.5,35.3-13.5c12.9-4.3,24.7-10.5,35.5-18.5c5.2-3.9,9.2-9.6,13.1-14.9
	c2.5-3.4,2.5-6.8,2.2-9.6c3.3,0.6,15.8,4.3,17.7,4.9c8.8,3.1,17.3,6.8,23.9,13.8c5.3,5.7,8.4,13.3-1.7,23.2
	C809.7,83.3,785.3,90.9,770.2,97.1z"/>
<path class="st6" d="M795.5,24.5"/>
<path class="st6" d="M790.3,23.3"/>
<path class="st7" d="M826.5,135.6c-5.9-5-10.5-10-16.8-15.4c13.1-5.7,24.4-11,36.1-15.5c4.3-1.6,9.3-1.6,14-1.8
	c3.4-0.1,5.6,1.4,3.6,5.3c-1.6,3-2.8,6.5-5.1,8.8c-5.4,5.2-11.2,10.3-17.4,14.4C838.2,131.2,832,130.8,826.5,135.6z"/>
<polyline class="st3" points="642.2,95 618.5,100.3 589,30 548.8,115.4 519.3,120.2 572.5,6.9 604,7 "/>
<path class="st0" d="M286.1,6.9h-23.9v134.4c8-0.2,16-0.4,23.9-0.5C286.1,96.1,286.1,51.6,286.1,6.9z"/>
<path class="st0" d="M446,7h-23.8c0,41.9,0,83.9-0.1,125.8c8-0.7,15.9-1.5,23.9-2.2V7z"/>
<path class="st0" d="M446.2,155.2c-8.1,0.3-16.1,0.6-24.2,0.9c0,14.9,0,29.9,0,44.8h23.8C446,185.7,446.1,170.4,446.2,155.2z"/>
<g>
	<path class="st0" d="M55.9,278.7l-0.1-47.9l-23.4,40.4h-2L7,231v47.7H3v-55.9h3.4l25,43.2l25-43.2h3.4l0.1,55.9H55.9z"/>
	<path class="st0" d="M113.4,258.8H77.5c0.4,9.9,7.7,16.6,17.7,16.6c5.3,0,10.1-1.9,13.3-5.8l2.3,2.6c-3.7,4.5-9.4,6.8-15.7,6.8
		c-12.6,0-21.5-8.8-21.5-21.2c0-12.4,8.6-21.2,20-21.2s19.9,8.6,19.9,21C113.5,258,113.4,258.4,113.4,258.8z M77.6,255.7h32
		c-0.6-9-7.1-15.5-16-15.5S78.2,246.5,77.6,255.7z"/>
	<path class="st0" d="M163.2,254.3v24.4h-4v-24.1c0-9.4-5-14.4-13.5-14.4c-9.8,0-15.8,6.3-15.8,16.2v22.2h-4V237h3.8v9
		c2.8-5.8,8.6-9.4,16.5-9.4C156.4,236.6,163.2,242.6,163.2,254.3z"/>
	<path class="st0" d="M200.3,276c-2.1,2-5.4,3-8.6,3c-7.4,0-11.3-4.3-11.3-11.3v-27.3h-7.7V237h7.7v-9.1h4v9.1h13.3v3.4h-13.3v26.9
		c0,5.4,2.6,8.3,7.8,8.3c2.5,0,4.8-0.8,6.5-2.3L200.3,276z"/>
	<path class="st0" d="M241.6,252.2v26.5h-3.8v-7.4c-2.6,4.8-7.8,7.8-15,7.8c-9.4,0-15-4.8-15-11.9c0-6.3,4-11.7,15.6-11.7h14.3v-3.4
		c0-7.8-4.2-11.9-12.4-11.9c-5.8,0-10.9,2.2-14.4,5.3l-2-2.9c4.2-3.7,10.2-5.9,16.7-5.9C235.8,236.6,241.6,241.9,241.6,252.2z
		 M237.6,266.4v-7.8h-14.2c-8.6,0-11.7,3.6-11.7,8.4c0,5.4,4.2,8.8,11.6,8.8C230.3,275.7,235.2,272.4,237.6,266.4z"/>
	<path class="st0" d="M258,219.4h4v59.3h-4V219.4z"/>
	<path class="st0" d="M346.3,222.7v55.9h-4.1v-26.6h-37.4v26.6h-4.1v-55.9h4.1v25.7h37.4v-25.7H346.3z"/>
	<path class="st0" d="M399.7,258.8h-35.9c0.4,9.9,7.7,16.6,17.7,16.6c5.3,0,10.1-1.9,13.3-5.8l2.3,2.6c-3.7,4.5-9.4,6.8-15.7,6.8
		c-12.6,0-21.5-8.8-21.5-21.2c0-12.4,8.6-21.2,20-21.2s19.9,8.6,19.9,21C399.8,258,399.7,258.4,399.7,258.8z M363.9,255.7h32
		c-0.6-9-7.1-15.5-16-15.5C371,240.1,364.6,246.5,363.9,255.7z"/>
	<path class="st0" d="M441.1,252.2v26.5h-3.8v-7.4c-2.6,4.8-7.8,7.8-15,7.8c-9.4,0-15-4.8-15-11.9c0-6.3,4-11.7,15.6-11.7h14.3v-3.4
		c0-7.8-4.2-11.9-12.4-11.9c-5.8,0-10.9,2.2-14.4,5.3l-2-2.9c4.2-3.7,10.2-5.9,16.7-5.9C435.4,236.6,441.1,241.9,441.1,252.2z
		 M437.1,266.4v-7.8h-14.2c-8.6,0-11.7,3.6-11.7,8.4c0,5.4,4.2,8.8,11.6,8.8C429.8,275.7,434.7,272.4,437.1,266.4z"/>
	<path class="st0" d="M457.6,219.4h4v59.3h-4V219.4z"/>
	<path class="st0" d="M498.6,276c-2.1,2-5.4,3-8.6,3c-7.4,0-11.3-4.3-11.3-11.3v-27.3H471V237h7.7v-9.1h4v9.1h13.3v3.4h-13.3v26.9
		c0,5.4,2.6,8.3,7.8,8.3c2.5,0,4.8-0.8,6.5-2.3L498.6,276z"/>
	<path class="st0" d="M547,254.3v24.4h-4v-24.1c0-9.4-5-14.4-13.5-14.4c-9.8,0-15.8,6.3-15.8,16.2v22.2h-4v-59.3h4v26.3
		c2.9-5.7,8.6-9,16.4-9C540.2,236.6,547,242.6,547,254.3z"/>
	<path class="st0" d="M619.9,262.9h-32.4l-7.1,15.7h-4.4l25.7-55.9h4.1l25.7,55.9h-4.4L619.9,262.9z M618.4,259.5l-14.7-32.3
		L589,259.5H618.4z"/>
	<path class="st0" d="M708.9,254.3v24.4h-4v-24.1c0-9.4-4.9-14.4-13-14.4c-9.4,0-15.3,6.3-15.3,16.2v22.2h-4v-24.1
		c0-9.4-4.9-14.4-13-14.4c-9.4,0-15.3,6.3-15.3,16.2v22.2h-4V237h3.8v9c2.7-5.8,8.4-9.3,16-9.3c7.5,0,13,3.4,15.3,10.1
		c2.7-6.1,8.8-10.1,16.9-10.1C702.3,236.6,708.9,242.6,708.9,254.3z"/>
	<path class="st0" d="M760.7,258.8h-35.9c0.4,9.9,7.7,16.6,17.7,16.6c5.3,0,10.2-1.9,13.3-5.8l2.3,2.6c-3.7,4.5-9.4,6.8-15.7,6.8
		c-12.6,0-21.5-8.8-21.5-21.2c0-12.4,8.6-21.2,20-21.2c11.4,0,19.9,8.6,19.9,21C760.8,258,760.7,258.4,760.7,258.8z M724.9,255.7h32
		c-0.6-9-7.1-15.5-16-15.5C732,240.1,725.5,246.5,724.9,255.7z"/>
	<path class="st0" d="M792.9,236.6v3.9c-0.3,0-0.6-0.1-1-0.1c-9.3,0-14.8,6.2-14.8,16.5v21.7h-4V237h3.8v9.1
		C779.5,240,785.1,236.6,792.9,236.6z"/>
	<path class="st0" d="M802.6,223.6c0-1.8,1.4-3.3,3.3-3.3c1.8,0,3.3,1.4,3.3,3.2c0,1.8-1.4,3.3-3.3,3.3
		C804.1,226.8,802.6,225.4,802.6,223.6z M803.9,237h4v41.7h-4V237z"/>
	<path class="st0" d="M820.2,257.8c0-12.5,8.9-21.2,21.1-21.2c6.6,0,12.4,2.6,15.8,7.7l-3,2.2c-3-4.2-7.7-6.2-12.9-6.2
		c-9.8,0-17,7-17,17.6c0,10.5,7.2,17.6,17,17.6c5.2,0,9.8-2,12.9-6.2l3,2.2c-3.4,5-9.2,7.7-15.8,7.7
		C829.1,279,820.2,270.2,820.2,257.8z"/>
	<path class="st0" d="M899.2,252.2v26.5h-3.8v-7.4c-2.6,4.8-7.8,7.8-15,7.8c-9.4,0-15-4.8-15-11.9c0-6.3,4-11.7,15.6-11.7h14.3v-3.4
		c0-7.8-4.2-11.9-12.4-11.9c-5.8,0-10.9,2.2-14.4,5.3l-2-2.9c4.2-3.7,10.2-5.9,16.7-5.9C893.5,236.6,899.2,241.9,899.2,252.2z
		 M895.3,266.4v-7.8H881c-8.6,0-11.7,3.6-11.7,8.4c0,5.4,4.2,8.8,11.6,8.8C888,275.7,892.9,272.4,895.3,266.4z"/>
</g>
</svg>
