<?xml version="1.0" encoding="utf-8"?>
<!-- Generator: Adobe Illustrator 26.4.1, SVG Export Plug-In . SVG Version: 6.00 Build 0)  -->
<svg version="1.1" id="logo" xmlns="http://www.w3.org/2000/svg" xmlns:xlink="http://www.w3.org/1999/xlink" x="0px" y="0px"
	 viewBox="0 0 1237.6 168.5" style="enable-background:new 0 0 1237.6 168.5;" xml:space="preserve">
<style type="text/css">
	.st0{fill:#FFFFFF;}
	.st1{fill-rule:evenodd;clip-rule:evenodd;fill:#FFFFFF;}
</style>
<path class="st0" d="M400.5,38.3l-9.9,11.4c2.2-0.8,4.2-1.9,6-3.3c1.8-1.4,3.3-2.6,4.3-3.6c1-0.9,3.1-1.8,6-2.6
	c3-0.8,6.9-1.2,11.8-1.2c4.4,0,8.7,0.4,12.7,1.3c4.1,0.9,8.1,2.4,12.1,4.6c4,2.2,7.4,5,10.3,8.3c2.9,3.3,5.3,7.6,7,12.8
	c1.8,5.2,2.6,11.2,2.6,17.8c0,17.1-3.7,29.3-11.1,36.7c-7.4,7.3-19.6,11-36.6,11c-5.4,0-10.3-0.3-14.6-0.8
	c-4.3-0.6-7.7-1.2-10.3-1.8c-2.5-0.7-4.9-1.6-7-2.7c-2.1-1.2-3.5-2.1-4.3-2.8c-0.8-0.7-1.6-1.7-2.6-2.8c-0.9-1.2-1.5-1.8-1.6-1.9
	V21.1c0-4.4,0.5-7.8,1.6-10.1c1-2.3,2.5-3.8,4.4-4.4c1.9-0.6,3.8-0.9,5.9-0.9c2,0,4.3-0.2,6.8-0.5c2.5-0.3,4.6-1.1,6.2-2.3V38.3z
	 M400.5,85.7c-0.1,14.6-0.1,21.8,0,21.8h0.2c0.9,0.2,1.8,0.4,2.9,0.7c1,0.2,2.9,0.5,5.5,0.7c2.6,0.3,5.1,0.3,7.4,0.2
	c2.3-0.2,4.8-0.7,7.6-1.5c2.8-0.8,5.2-2.1,7.1-3.7c1.9-1.7,3.6-4,4.9-7.1c1.3-3.1,2-6.7,2-10.9c0-4.4-0.6-8.2-1.7-11.5
	c-1.1-3.3-2.5-5.8-4.3-7.6c-1.8-1.8-3.9-3.3-6.3-4.4c-2.4-1.1-4.8-1.8-7-2c-2.3-0.2-4.7-0.2-7.2-0.1c-2.5,0.2-4.7,0.4-6.4,0.7
	c-1.7,0.3-3.3,0.7-4.7,1.2V85.7z"/>
<path class="st0" d="M504.7,98.7c0,3.4,1.7,6,5.1,7.7c3.4,1.7,7.8,2.6,13,2.6c5.2,0.1,10.4-0.2,15.4-0.7c5-0.5,9.8-1.1,14.2-1.7
	c4.5-0.7,7-1,7.7-1c0.4,9.6-1.5,16.4-5.7,20.4c-4.2,4-12.8,6-25.6,6c-17.7,0-30.6-3.6-38.9-10.8c-8.3-7.2-12.4-19.6-12.4-37.2
	c0-8.8,1.1-16.3,3.4-22.4c2.3-6.1,5.6-10.8,9.9-14c4.4-3.2,9.2-5.5,14.6-6.8c5.3-1.3,11.6-2,18.8-2c13.7,0,23.7,2.9,30.2,8.7
	c6.5,5.8,9.7,15,9.7,27.7c0,4.9-0.9,8.7-2.8,11.7c-1.9,2.9-4.3,4.9-7.4,5.9c-3,1-6.7,1.7-10.9,2.2c-4.2,0.4-8.4,0.6-12.6,0.4
	c-4.1-0.2-8.6,0-13.4,0.6C512.2,96.5,508.1,97.4,504.7,98.7z M503.9,81.3c1.9-1.3,4.9-2.2,9.2-2.6c4.2-0.4,8.2-0.7,11.9-0.7
	c3.7-0.1,7-0.8,9.8-2.3c2.9-1.5,4.2-3.8,4.1-7c0-2.9-2.3-5.2-6.8-7.1c-6.3-2.6-12.4-2.9-18.4-0.7C505.5,63.8,502.2,70.6,503.9,81.3z
	"/>
<path class="st0" d="M630.7,109c1.5,4.9,1.8,9.3,0.7,13.4c-1.1,4.1-3,6.8-5.6,8.1c-5.7,1.8-11.3,2.3-16.8,1.6
	c-5.5-0.7-10.3-2.2-14.6-4.6c-4.2-2.3-7.7-5.7-10.3-10.1c-2.6-4.4-4-9.4-4-15.1V31.2c-0.1-3.4,0.4-6.3,1.7-8.5
	c1.2-2.3,3-3.9,5.5-4.9c2.4-1,5-1.6,7.8-1.9c2.8-0.3,6.1-0.3,9.9-0.1v24h28.5c0,0.3,0,0.7,0,1.2c0,0.5-0.1,1.5-0.3,3.1
	c-0.2,1.5-0.6,3-1,4.5c-0.4,1.4-1.2,3-2.2,4.7c-1.1,1.7-2.3,3.2-3.7,4.4c-1.4,1.2-3.4,2.2-5.8,3.1c-2.4,0.8-5.1,1.2-8.1,1.2
	c-2.6,0-5.1,0.1-7.3,0.2l0.2,38.2c-0.1,3,0.5,5.3,1.8,6.9c1.3,1.6,3.1,2.5,5.4,2.8c2.3,0.3,4.5,0.3,6.8,0.2c2.3-0.2,4.6-0.4,7-0.7
	C628.4,109.2,630,109,630.7,109z"/>
<path class="st0" d="M698.4,109c1.5,4.9,1.8,9.3,0.7,13.4c-1.1,4.1-3,6.8-5.6,8.1c-5.7,1.8-11.3,2.3-16.8,1.6
	c-5.5-0.7-10.3-2.2-14.6-4.6c-4.2-2.3-7.7-5.7-10.3-10.1c-2.6-4.4-4-9.4-4-15.1V31.2c-0.1-3.4,0.4-6.3,1.7-8.5
	c1.2-2.3,3-3.9,5.5-4.9c2.4-1,5-1.6,7.8-1.9c2.8-0.3,6.1-0.3,9.9-0.1v24H701c0,0.3,0,0.7,0,1.2c0,0.5-0.1,1.5-0.3,3.1
	c-0.2,1.5-0.6,3-1,4.5c-0.4,1.4-1.2,3-2.2,4.7c-1,1.7-2.3,3.2-3.7,4.4c-1.4,1.2-3.4,2.2-5.8,3.1c-2.4,0.8-5.1,1.2-8.1,1.2
	c-2.6,0-5.1,0.1-7.3,0.2l0.2,38.2c-0.1,3,0.5,5.3,1.8,6.9c1.3,1.6,3.1,2.5,5.4,2.8c2.3,0.3,4.5,0.3,6.8,0.2c2.3-0.2,4.6-0.4,6.9-0.7
	C696,109.2,697.6,109,698.4,109z"/>
<path class="st0" d="M738.6,98.7c0,3.4,1.7,6,5.1,7.7c3.4,1.7,7.8,2.6,13,2.6c5.2,0.1,10.4-0.2,15.4-0.7c5-0.5,9.8-1.1,14.2-1.7
	c4.5-0.7,7-1,7.7-1c0.4,9.6-1.5,16.4-5.7,20.4c-4.2,4-12.8,6-25.6,6c-17.7,0-30.6-3.6-38.9-10.8c-8.3-7.2-12.4-19.6-12.4-37.2
	c0-8.8,1.1-16.3,3.4-22.4c2.3-6.1,5.6-10.8,9.9-14c4.4-3.2,9.2-5.5,14.6-6.8c5.3-1.3,11.6-2,18.8-2c13.7,0,23.7,2.9,30.2,8.7
	c6.5,5.8,9.7,15,9.7,27.7c0,4.9-0.9,8.7-2.8,11.7c-1.9,2.9-4.3,4.9-7.4,5.9c-3,1-6.7,1.7-10.9,2.2c-4.2,0.4-8.4,0.6-12.6,0.4
	c-4.1-0.2-8.6,0-13.4,0.6C746.1,96.5,742,97.4,738.6,98.7z M737.8,81.3c1.9-1.3,4.9-2.2,9.2-2.6c4.2-0.4,8.2-0.7,11.9-0.7
	c3.7-0.1,7-0.8,9.8-2.3c2.9-1.5,4.2-3.8,4.1-7c0-2.9-2.3-5.2-6.8-7.1c-6.3-2.6-12.4-2.9-18.4-0.7C739.4,63.8,736.1,70.6,737.8,81.3z
	"/>
<path class="st0" d="M876.6,38.7c-0.1,0.2-0.1,1.4,0.1,3.5c0.2,2.1,0.1,4.1-0.1,6c-0.2,1.9-0.7,4-1.3,6.2c-0.7,2.2-2,4-4.1,5.3
	c-2,1.3-4.7,2-7.9,2c-4.6,0-8.2,0.2-10.8,0.5c-2.5,0.3-4.8,1.2-6.8,2.5c-2,1.3-3.3,3.2-4,5.6c-0.7,2.4-1,5.7-1,9.9v53
	c-2-1.4-4.6-2.6-7.9-3.4c-3.3-0.8-6-1.5-8.3-1.9c-2.3-0.4-4.3-1.7-6-3.9c-1.8-2.2-2.6-5.3-2.6-9.3V70.3c0-0.7,0-1.6,0.1-2.7
	c0.1-1.2,0.2-2.8,0.6-4.8c0.3-2,0.9-4.1,1.7-6.1c0.8-2,1.9-4.2,3.5-6.4c1.5-2.2,3.4-4.1,5.6-5.8c2.2-1.7,5-3,8.5-4.1
	c3.5-1.1,7.4-1.7,11.7-1.7c7.4,0,12.9,0,16.4,0c3.5,0,5.5,0,5.8,0c0.3,0,1,0,1.9,0C872.6,38.7,874.3,38.7,876.6,38.7z"/>
<path class="st0" d="M919.6,41.8c5.4-2.2,14.5-3.3,27.1-3.3c6.2,0,11.5,1,15.9,3.1c4.4,2.1,7.6,4.5,9.6,7.2c2,2.7,3.5,5.8,4.5,9.3
	c1,3.5,1.6,6.1,1.7,7.8c0.1,1.7,0.1,3.2,0,4.4v60.2c-16.6,2.2-24.8-2.9-24.8-15.4c0-4.6,0-10.7,0-18.2c0.1-16.4-0.7-26.5-2.3-30
	c-1.7-3.6-6.8-5.5-15.6-5.7c-5.4,0-10.8,1-16.2,3v51c0.2,6.6-1.8,11-6.2,13c-4.4,2-10.6,2.8-18.6,2.4V1.4c2,1.4,4.6,2.3,7.9,2.6
	c3.3,0.3,6,0.4,8.3,0.4c2.3,0,4.3,1.2,6,3.6c1.8,2.4,2.6,6.3,2.6,11.7V41.8z"/>
<path class="st0" d="M1024.2,98.7c0,3.4,1.7,6,5.1,7.7c3.4,1.7,7.7,2.6,13,2.6c5.2,0.1,10.4-0.2,15.4-0.7c5-0.5,9.8-1.1,14.2-1.7
	c4.5-0.7,7-1,7.7-1c0.4,9.6-1.5,16.4-5.7,20.4c-4.2,4-12.8,6-25.6,6c-17.7,0-30.6-3.6-38.9-10.8c-8.3-7.2-12.4-19.6-12.4-37.2
	c0-8.8,1.1-16.3,3.4-22.4c2.3-6.1,5.6-10.8,9.9-14c4.4-3.2,9.2-5.5,14.6-6.8c5.3-1.3,11.6-2,18.8-2c13.7,0,23.8,2.9,30.2,8.7
	c6.5,5.8,9.7,15,9.7,27.7c0,4.9-0.9,8.7-2.8,11.7c-1.9,2.9-4.3,4.9-7.4,5.9c-3,1-6.7,1.7-10.9,2.2c-4.3,0.4-8.4,0.6-12.6,0.4
	c-4.1-0.2-8.6,0-13.4,0.6C1031.7,96.5,1027.6,97.4,1024.2,98.7z M1023.3,81.3c1.9-1.3,4.9-2.2,9.2-2.6c4.2-0.4,8.2-0.7,11.9-0.7
	c3.7-0.1,7-0.8,9.8-2.3c2.9-1.5,4.2-3.8,4.1-7c0-2.9-2.3-5.2-6.8-7.1c-6.3-2.6-12.4-2.9-18.4-0.7C1025,63.8,1021.7,70.6,1023.3,81.3
	z"/>
<path class="st0" d="M1127.2,115.1c0.2,6.6-1.8,11-6.2,13c-4.4,2-10.6,2.8-18.6,2.4V1.4c2,1.4,4.6,2.3,7.9,2.6
	c3.3,0.3,6,0.4,8.3,0.4c2.3,0,4.3,1.2,6,3.6c1.8,2.4,2.6,6.3,2.6,11.7V115.1z"/>
<path class="st0" d="M1171.7,167.1c-2-1.4-4.6-2.3-7.9-2.6c-3.3-0.3-6-0.4-8.3-0.4c-2.3,0-4.3-1.2-6-3.6c-1.8-2.4-2.6-6.3-2.6-11.7
	V51.2c0.1-0.1,0.6-0.7,1.6-1.9c0.9-1.2,1.8-2.1,2.6-2.7c0.8-0.7,2.2-1.6,4.3-2.8c2.1-1.2,4.4-2.2,7-2.8c2.5-0.7,6-1.3,10.3-1.8
	c4.3-0.6,9.2-0.8,14.6-0.8c17,0,29.2,3.7,36.6,11c7.4,7.3,11.1,19.6,11.1,36.7c0,8.3-1.3,15.4-4,21.5c-2.6,6.1-6.2,10.7-10.7,14
	c-4.5,3.3-9.2,5.6-14.2,7.1c-5,1.5-10.3,2.2-16,2.2c-7.6,0-13.7-0.8-18.2-2.3V167.1z M1171.7,84.3v23.5c1.8,0.6,3.7,1,5.7,1.3
	c2,0.3,4.6,0.6,7.7,0.8c3.1,0.2,6-0.1,8.6-1c2.6-0.9,5.2-2.2,7.6-3.8c2.4-1.7,4.4-4.3,5.8-7.9c1.4-3.6,2.2-8,2.2-13.1
	c0-4.2-0.7-7.8-2.1-10.9c-1.4-3.1-3-5.5-4.8-7.1c-1.8-1.7-4.2-2.9-7.2-3.7c-3-0.8-5.5-1.3-7.4-1.5c-2-0.2-4.5-0.1-7.4,0.2
	c-3,0.3-4.8,0.6-5.5,0.7c-0.7,0.1-1.7,0.3-3,0.7h-0.2C1171.6,62.5,1171.6,69.8,1171.7,84.3z"/>
<path class="st1" d="M330.5,43.5c0,0-58.4-37.8-109.6-21c-17.2,5.6-31.4,16.7-42.7,28.9c-6.3,6.9-13.6,22.5-35.6,31
	c-4.8,1.9-10.2,3.8-17.1,4.7c-9.9,1.2-16.4,3.6-24.7,5.7c-3.5,0.9-10.3,2.9-10.8-1.5c-0.3-2.9,2.8-3.7,5.4-4.5
	c5.6-1.6,9.6-3,15.1-4.9c1.9-0.7,6.9-1.5,6.3-3.5c-0.4-1.4-3.7-0.5-5.3-0.2c-9.7,1.9-18.6,3.6-28.4,5.1c-4,0.6-8.8,1.4-9.5-2.1
	c-1-5.2,5.5-5.3,10-6.1c8.3-1.4,14.8-2.9,22.8-4.4c1.3-0.2,3-0.3,3.5-1.7c-1.4-1-3.5-0.3-5.3-0.1c-10.7,1.6-22,3.2-32.3,5.4
	c-3.5,0.7-7,1-7.7-2.1c-1.3-5.3,5.6-6.2,10-7.2c9.4-2.3,17.3-3,27.9-4.8c1.4-0.2,4.7-0.6,4.7-1.8c0-1.7-5.1-1.1-6.8-1.2
	c-7.7,0-13.3,0.6-21.8,1.5c-4.6,0.5-10.5,2-11.1-2.2C66.7,50,79.5,50.6,85,50c10.5-1.2,20.5-1.6,30.1-4.1c4.4-1.1,10.3-2.6,10.7-5.7
	c0.4-3.2-4-6.7-5.5-7.7c-2.4-1.5-5.3-2.6-7.7-4.4c-2.4-1.8-4.9-4-6.1-6.3c-1.4-2.6-1.8-8.5,2-8.8c1.5-0.1,5.1,2.9,6.2,3.7
	c2.2,1.5,4.3,2.5,6.1,3.8c3.4,2.4,5.7,5.2,9.1,6.8c2.5,1.2,5.1,2.2,7.5,3.4c2.4,1.3,4.8,2.5,7.1,3.9c2.4,1.5,4.7,4.9,7.9,6.6
	c17.9,9.4,27.3-8.2,23-10.5C153.1,19.3,116.3,4,94.5,6.2C40.9,11.7,2.8,69.9,2.8,69.9s49,49.4,102.6,44
	c27.6-2.8,51.1-19.6,67.4-35.2c-0.4-0.5,15.2-19,34.1-25.6c9.4-3.3,15.3-7,22.9-10.9c3.2-1.6,9.4-5,10.8-0.9
	c0.9,2.8-1.9,4.2-4.3,5.5c-5.2,2.8-8.8,5-13.7,8.1c-1.7,1.1-6.5,2.9-5.4,4.8c0.7,1.3,3.7-0.3,5.2-0.9c9.1-3.9,17.4-7.5,26.7-11.1
	c3.7-1.5,8.3-3.2,9.7,0.1c2.1,4.8-4.2,6.3-8.4,8.1c-7.8,3.2-13.9,6-21.3,9.2c-1.2,0.5-2.9,0.9-3.1,2.4c1.6,0.6,3.5-0.4,5.2-1
	c10.1-3.8,20.8-7.8,30.4-12.2c3.2-1.4,6.6-2.5,8,0.4c2.4,4.9-4.2,7.2-8.3,9.2c-8.7,4.2-16.3,6.7-26.2,10.6c-1.4,0.6-4.5,1.6-4.2,2.7
	c0.3,1.6,5.2,0,6.9-0.3c7.5-1.6,12.9-3.4,21-6.1c4.4-1.5,9.9-4.2,11.3-0.2c2.2,6.1-10.4,8.2-15.6,10c-10,3.4-19.7,5.9-28.5,10.4
	c-4.1,2-9.5,4.7-9.2,7.8c0.3,3.2,5.3,5.7,7,6.3c2.6,1,5.8,1.4,8.5,2.7c2.7,1.3,5.6,2.8,7.3,4.9c1.9,2.2,3.6,8-0.1,9
	c-1.5,0.4-5.6-1.8-6.9-2.3c-2.5-0.9-4.7-1.5-6.8-2.4c-3.8-1.6-6.6-3.9-10.3-4.7c-2.7-0.7-5.4-1-8.1-1.8c-2.6-0.7-5.2-1.4-7.8-2.3
	c-2.7-0.9-6.2-2.5-9.1-4.7c-1-0.8-3-2.2-5.1-1.6c-14.4,0.3-28.6,8.2-36.7,22.1c-7.9,13.6-7.9,29.4-1.5,41.9
	c-1.3-9.5,0.4-19.6,5.7-28.7c5-8.7,12.4-15,20.8-18.6c21.7,8.6,52.4,16.2,81,6.8C305.8,108.5,330.5,43.5,330.5,43.5z"/>
</svg>
