<?xml version="1.0" encoding="UTF-8"?><svg id="Layer_1" xmlns="http://www.w3.org/2000/svg" viewBox="0 0 360.56 122.24"><defs><style>.cls-1{fill:#385988;}.cls-1,.cls-2{stroke-width:0px;}.cls-2{fill:#ff9f37;}</style></defs><path class="cls-1" d="m204.67,57.12l-10.72,21.43h-9.83l10.31-20.45c3.42-.3,6.83-.63,10.24-.98h0Zm48.87-6.97l13.76,28.4h-9.07l-13.21-26.88c2.88-.49,5.72-1,8.53-1.52h0ZM230.44,2.45l17.13,35.37c-2.75.67-5.55,1.32-8.4,1.96l-12.79-26.02-15.84,31.65c-3.5.6-7.03,1.18-10.57,1.73L222.5,2.45h7.93Z"/><path class="cls-1" d="m111.56,59.58v18.97h-9.59v-19.84c3.08.33,6.28.62,9.59.87h0Zm62.52,0v18.97h-9.58v-18.5c3.17-.13,6.37-.29,9.58-.48h0Zm-62.52-16.3v11.37c-2.73,0-5.39-.02-7.99-.08l-1.59.04V2.45h9.59v40.84h0ZM174.08,2.45v48.18c-3.2.37-6.4.72-9.58,1.05V2.45h9.58Z"/><polygon class="cls-1" points="0 78.55 0 2.45 9.24 2.45 40.35 50.94 71.23 2.45 80.25 2.45 80.25 78.55 70.67 78.55 70.67 20.17 40.13 68.44 9.37 20.39 9.37 78.55 0 78.55 0 78.55"/><path class="cls-1" d="m319.2,56.53c-2.64-2.55-5.46-4.92-8.46-7.11-10.53,5.58-22.14,12.66-31.1,19.98-2.54,2.07-5.56,4.14-6.92,7.11-.39.84-.01,1.84.8,2.26.97.5,2.61.28,3.63-.04,10.2-3.19,23.36-9.75,33.86-16.41,1.4-.89,2.78-1.79,4.16-2.72.7-.47,1.4-.95,2.1-1.44.27-.19,1.89-1.07,1.91-1.35l.02-.28Z"/><path class="cls-1" d="m336.78,42.12c.43-1.03-.22-2.23-1.33-2.36-.85-.1-1.71-.01-2.46.13-5.86,1.14-11.46,4.72-16.57,6.58,1.91,2.2,4.4,3.81,6.6,5.72,1.23-.7,2.66-1.11,4.18-1.11.24,0,.47.02.7.04,2.89-2.89,7.26-5.15,8.89-9Z"/><path class="cls-1" d="m352.01.39h-73.16c1.83,1.26,3.72,3.55,4.19,5.9,7.65-2.62,15.54-1.99,21.31,1.16,29.19,6.44,25.56,15.02,13.84,22.2,3.82,3.82,9.37,6.27,15.93,6.84,2.72.23,7.11-.55,7.72,2.05.62,2.65-2.93,6.51-4.31,7.94-2.22,2.29-4.57,4.1-6.17,5.71,2.57,1.46,4.3,4.21,4.3,7.37,0,4.68-3.79,8.47-8.47,8.47-4.17,0-7.63-3.02-8.33-6.98-9.95,6.58-19.76,13.08-31.91,17.46h65.07V.39Z"/><path class="cls-2" d="m267.09,33.58c-46.07,13.85-115.93,23.04-163.52,21.99-5.09.14-10.11.21-15.01.21,3.02.56,6.32,1.07,9.92,1.52,48.89,6.11,131.71-.54,184.92-14.87,47.87-12.89,53.41-26.41,23.24-33.44,3.48,7.07-10.93,15.98-39.56,24.59h0Z"/><path class="cls-1" d="m21.1,111.94c-.14-3.13-.32-6.91-.29-10.19h-.11c-.79,2.95-1.8,6.23-2.88,9.29l-3.57,10.52h-3.39l-3.24-10.37c-.94-3.1-1.8-6.41-2.45-9.44h-.07c-.11,3.17-.25,7.02-.43,10.34l-.54,9.76H0l1.62-24.27h5.83l3.17,9.76c.86,2.84,1.62,5.73,2.23,8.43h.11c.65-2.63,1.48-5.62,2.41-8.46l3.35-9.72h5.76l1.4,24.27h-4.32l-.47-9.9Z"/><path class="cls-1" d="m33.53,114.32c.11,3.17,2.56,4.54,5.4,4.54,2.05,0,3.49-.32,4.86-.79l.65,3.03c-1.51.65-3.6,1.12-6.12,1.12-5.69,0-9.04-3.49-9.04-8.86,0-4.86,2.95-9.44,8.57-9.44s7.56,4.68,7.56,8.54c0,.83-.07,1.48-.14,1.87h-11.74Zm7.71-3.1c.04-1.62-.68-4.29-3.64-4.29-2.74,0-3.89,2.49-4.07,4.29h7.71Z"/><path class="cls-1" d="m48.99,109.53c0-2.02-.07-3.71-.14-5.22h3.85l.22,2.63h.11c.79-1.37,2.7-3.03,5.62-3.03,3.06,0,6.23,1.98,6.23,7.53v10.41h-4.43v-9.9c0-2.52-.94-4.43-3.35-4.43-1.76,0-2.99,1.26-3.46,2.59-.14.36-.22.9-.22,1.4v10.34h-4.43v-12.32Z"/><path class="cls-1" d="m74.49,99.81v4.5h4.21v3.31h-4.21v7.74c0,2.16.58,3.24,2.27,3.24.79,0,1.22-.04,1.73-.18l.07,3.35c-.65.25-1.84.47-3.21.47-1.66,0-2.99-.54-3.82-1.44-.97-1.01-1.4-2.63-1.4-4.93v-8.25h-2.49v-3.31h2.49v-3.28l4.36-1.22Z"/><path class="cls-1" d="m95.67,117.63c0,1.58.07,3.13.29,4.21h-4l-.32-1.94h-.11c-1.04,1.37-2.88,2.34-5.19,2.34-3.53,0-5.51-2.56-5.51-5.22,0-4.39,3.93-6.66,10.41-6.63v-.29c0-1.15-.47-3.06-3.57-3.06-1.73,0-3.53.54-4.72,1.3l-.86-2.88c1.3-.79,3.57-1.55,6.34-1.55,5.62,0,7.24,3.57,7.24,7.42v6.3Zm-4.32-4.36c-3.13-.04-6.12.61-6.12,3.28,0,1.73,1.12,2.52,2.52,2.52,1.8,0,3.06-1.15,3.49-2.41.11-.32.11-.65.11-.97v-2.41Z"/><path class="cls-1" d="m100.35,96.28h4.43v25.57h-4.43v-25.57Z"/><path class="cls-1" d="m121.67,97.57v9.72h10.26v-9.72h4.43v24.27h-4.43v-10.7h-10.26v10.7h-4.43v-24.27h4.43Z"/><path class="cls-1" d="m144.4,114.32c.11,3.17,2.56,4.54,5.4,4.54,2.05,0,3.49-.32,4.86-.79l.65,3.03c-1.51.65-3.6,1.12-6.12,1.12-5.69,0-9.04-3.49-9.04-8.86,0-4.86,2.95-9.44,8.57-9.44s7.56,4.68,7.56,8.54c0,.83-.07,1.48-.14,1.87h-11.74Zm7.71-3.1c.04-1.62-.68-4.29-3.64-4.29-2.74,0-3.89,2.49-4.07,4.29h7.71Z"/><path class="cls-1" d="m173.47,117.63c0,1.58.07,3.13.29,4.21h-4l-.32-1.94h-.11c-1.04,1.37-2.88,2.34-5.19,2.34-3.53,0-5.51-2.56-5.51-5.22,0-4.39,3.93-6.66,10.41-6.63v-.29c0-1.15-.47-3.06-3.57-3.06-1.73,0-3.53.54-4.72,1.3l-.86-2.88c1.3-.79,3.57-1.55,6.34-1.55,5.62,0,7.24,3.57,7.24,7.42v6.3Zm-4.32-4.36c-3.13-.04-6.12.61-6.12,3.28,0,1.73,1.12,2.52,2.52,2.52,1.8,0,3.06-1.15,3.49-2.41.11-.32.11-.65.11-.97v-2.41Z"/><path class="cls-1" d="m178.15,96.28h4.43v25.57h-4.43v-25.57Z"/><path class="cls-1" d="m192.49,99.81v4.5h4.21v3.31h-4.21v7.74c0,2.16.58,3.24,2.27,3.24.79,0,1.22-.04,1.73-.18l.07,3.35c-.65.25-1.84.47-3.21.47-1.66,0-2.99-.54-3.82-1.44-.97-1.01-1.4-2.63-1.4-4.93v-8.25h-2.49v-3.31h2.49v-3.28l4.36-1.22Z"/><path class="cls-1" d="m200.05,96.28h4.43v10.41h.07c.54-.83,1.3-1.51,2.2-1.98.9-.5,1.94-.79,3.06-.79,2.99,0,6.12,1.98,6.12,7.6v10.34h-4.43v-9.87c0-2.52-.94-4.47-3.39-4.47-1.73,0-2.95,1.15-3.46,2.48-.14.4-.18.86-.18,1.33v10.52h-4.43v-25.57Z"/><path class="cls-1" d="m233.16,114.97l-2.09,6.88h-4.57l7.78-24.27h5.65l7.89,24.27h-4.79l-2.2-6.88h-7.67Zm6.95-3.35l-1.91-5.98c-.47-1.48-.86-3.13-1.22-4.54h-.07c-.36,1.4-.76,3.1-1.15,4.54l-1.87,5.98h6.23Z"/><path class="cls-1" d="m250.84,109.53c0-2.02-.07-3.71-.14-5.22h3.78l.22,2.59h.11c.83-1.37,2.41-2.99,5.4-2.99,2.3,0,4.11,1.3,4.86,3.24h.07c.61-.97,1.33-1.69,2.12-2.2,1.01-.68,2.13-1.04,3.6-1.04,2.88,0,5.83,1.98,5.83,7.6v10.34h-4.32v-9.69c0-2.92-1.01-4.65-3.13-4.65-1.51,0-2.63,1.08-3.1,2.34-.14.4-.22.97-.22,1.48v10.52h-4.32v-10.16c0-2.45-.97-4.18-3.03-4.18-1.66,0-2.77,1.3-3.21,2.48-.14.47-.22.97-.22,1.48v10.37h-4.32v-12.32Z"/><path class="cls-1" d="m284.52,114.32c.11,3.17,2.56,4.54,5.4,4.54,2.05,0,3.49-.32,4.86-.79l.65,3.03c-1.51.65-3.6,1.12-6.12,1.12-5.69,0-9.04-3.49-9.04-8.86,0-4.86,2.95-9.44,8.57-9.44s7.56,4.68,7.56,8.54c0,.83-.07,1.48-.14,1.87h-11.74Zm7.71-3.1c.04-1.62-.68-4.29-3.64-4.29-2.74,0-3.89,2.49-4.07,4.29h7.71Z"/><path class="cls-1" d="m299.97,109.96c0-2.38-.04-4.1-.14-5.65h3.82l.18,3.31h.11c.86-2.45,2.92-3.71,4.83-3.71.43,0,.68.04,1.04.11v4.14c-.4-.07-.79-.11-1.33-.11-2.09,0-3.57,1.33-3.96,3.35-.07.4-.11.86-.11,1.33v9.11h-4.43v-11.89Z"/><path class="cls-1" d="m317.51,99.41c0,1.3-.97,2.38-2.52,2.38s-2.45-1.08-2.45-2.38c0-1.37,1.01-2.41,2.49-2.41s2.45,1.04,2.49,2.41Zm-4.72,22.44v-17.54h4.43v17.54h-4.43Z"/><path class="cls-1" d="m334.91,121.31c-.94.43-2.77.9-4.97.9-5.47,0-9.04-3.53-9.04-8.97s3.6-9.33,9.76-9.33c1.62,0,3.28.36,4.29.79l-.79,3.35c-.72-.36-1.76-.68-3.35-.68-3.39,0-5.4,2.49-5.37,5.69,0,3.6,2.34,5.65,5.37,5.65,1.51,0,2.63-.32,3.49-.68l.61,3.28Z"/><path class="cls-1" d="m351.8,117.63c0,1.58.07,3.13.29,4.21h-4l-.32-1.94h-.11c-1.04,1.37-2.88,2.34-5.19,2.34-3.53,0-5.51-2.56-5.51-5.22,0-4.39,3.93-6.66,10.41-6.63v-.29c0-1.15-.47-3.06-3.57-3.06-1.73,0-3.53.54-4.72,1.3l-.86-2.88c1.3-.79,3.57-1.55,6.34-1.55,5.62,0,7.24,3.57,7.24,7.42v6.3Zm-4.32-4.36c-3.13-.04-6.12.61-6.12,3.28,0,1.73,1.12,2.52,2.52,2.52,1.8,0,3.06-1.15,3.49-2.41.11-.32.11-.65.11-.97v-2.41Z"/><path class="cls-1" d="m357.43,6.28c-.87,0-1.6-.31-2.22-.92s-.92-1.35-.92-2.22.31-1.6.92-2.22,1.35-.92,2.22-.92,1.6.31,2.21.92.92,1.35.92,2.22-.31,1.6-.92,2.22-1.35.92-2.21.92Zm0-5.9c-.76,0-1.41.27-1.95.81s-.81,1.19-.81,1.95.27,1.41.81,1.95,1.19.81,1.95.81,1.41-.27,1.95-.81.81-1.19.81-1.95-.27-1.41-.81-1.95-1.19-.81-1.95-.81Zm1.52,4.72h-.68l-.43-.96c-.22-.48-.46-.72-.71-.72h-.37v1.67h-.56V1.11h1.12c.46,0,.82.1,1.08.29s.38.46.38.79c0,.27-.09.51-.27.7s-.42.32-.74.39v.02c.22.05.44.29.66.73l.52,1.06h0Zm-2.19-3.51v1.36h.6c.55,0,.82-.23.82-.68,0-.24-.07-.42-.22-.52s-.38-.15-.7-.15h-.5Z"/></svg>