<?xml version="1.0" encoding="UTF-8"?><svg id="Layer_1" xmlns="http://www.w3.org/2000/svg" viewBox="0 0 897.34 276.11"><defs><style>.cls-1{fill:#035794;}.cls-2{fill:#005793;}.cls-3{fill:#045893;}.cls-4{fill:#025695;}.cls-5{fill:#035894;}.cls-6{fill:#015694;}.cls-7{fill:#f69a44;}</style></defs><path class="cls-4" d="M0,198V4H23.2c25.9,40.4,53.5,82.8,79.7,123.7h0L180.3,4h23.7v1.4l.1,192.6h-23.8s.3-142.1,0-143.9l-77.3,117.9L23.2,54V198"/><path class="cls-6" d="M736.2,198c.5-.9,29.1-14.6,42.3-21.8,9.5-5.2,18.3-11.4,27.5-17.1,2.7-1.7,5.6-3.1,8.5-4.7,.7,14.3,27.7,22.3,38.1,11.2,4.5-5.9,10.6-19.4-3.7-30.6-3.5-2.7-3.2-3.9,0-6.5,9.2-7.4,18.5-14.9,23-26.5,1.6-4.2-1.3-9.2-6.2-9.5-5.1-.3-10.2,0-15.2-.5-14.8-1.5-26.3-5-36.3-16.4,7.3-4.8,8.4-5.5,12.7-8.9,12.3-10.2,11.6-22.9-.9-31.2-6.9-4.5-12.3-7.1-21.9-10.6-2-.7-8.1-2.7-14.2-4.1-1.1-.3-4.7-1.1-5.7-1.4,0,0-2.9-3.1-9.8-6.7-6.5-3.5-21.4-6.5-33.4-3.8-7.6,1.7-12.1,4-14.3,5.2-2.7,1.5-4.1,1.2-4.9-1.9-.4-1.3-5-9.3-8.5-12.2h184c0,65,.1,133,0,198h-161.1Z"/><path class="cls-3" d="M695.8,198c-.7-6.2,3.6-11.2,8.4-15.2,8.2-6.9,16.6-13.8,25.7-19.6,19.6-12.7,39.6-24.5,59.4-36.7,2.5-1.6,4.6-1.8,7.1,.4,6.4,5.5,13,10.8,20.3,16.8-8.5,5.6-15.8,11-23.7,15.4-18.2,10.2-36.5,20.1-55,29.6-7,3.6-9.5,4.1-17,6.8-.9,.3-4.1,1.6-7.5,2.6h-17.7v-.1h0Z"/><path class="cls-3" d="M654.3,125.1l27.7,72.9-25.2,.1-25.6-68,23.1-5Z"/><path class="cls-5" d="M478.9,198l23.7-50.3,27.8-1.3-24.2,51.6h-27.3Z"/><path class="cls-2" d="M259.5,198v-48.9c8,.6,16,1.2,23.9,1.8v47.1h-23.9Z"/><path class="cls-7" d="M767.5,94.2c-7.4,3.1-156.1,36.9-175.6,39.5-16.6,2.1-43.2,5.9-51.9,7-7.1,.9-14.3,1.6-21.5,2.3-13.9,1.4-27.7,2.7-41.6,3.9-6.1,.5-12.2,.8-18.3,1-9.4,.4-18.8,.6-28.2,1-12.3,.6-24.7,1.3-37.8,1.6-22.4-.5-44.3-1-65.9-1.1-.6,0-37.4-1.2-55.4-2.5-7.2-.5-14.4-1.3-21.5-2-6.3-.7-12.7-1.5-18.9-2.9,6.6-.9,13-1.1,20-1.3,24.1,0,74.1-.7,75.9-.9,12.1-.6,23.8-1.3,35.5-1.9,5.9-.3,11.8-.5,17.7-1.1,14.2-1.3,28.3-2.7,42.9-4.1,7.5-1,38.1-3.9,45.8-5,14.9-2.1,29.8-4.7,45.2-7,7.1-1.2,13.8-2.5,21-3.8,28.9-5.7,92.1-19.2,95.4-20,10.9-2.8,21.9-5.3,32.8-8.2,12-3.2,24.1-6.3,35.9-10.3,11.9-4,23.4-9.5,35.3-13.5,12.9-4.3,24.7-10.5,35.5-18.5,5.2-3.9,9.2-9.6,13.1-14.9,2.5-3.4,2.5-6.8,2.2-9.6,3.3,.6,15.8,4.3,17.7,4.9,8.8,3.1,17.3,6.8,23.9,13.8,5.3,5.7,8.4,13.3-1.7,23.2-18.1,16.6-42.4,24.2-57.5,30.4Z"/><path class="cls-1" d="M823.7,132.7c-5.9-5-10.5-10-16.8-15.4,13.1-5.7,24.4-11,36.1-15.5,4.3-1.6,9.3-1.6,14-1.8,3.4-.1,5.6,1.4,3.6,5.3-1.6,3-2.8,6.5-5.1,8.8-5.4,5.2-11.2,10.3-17.4,14.4-2.6-.2-8.9-.6-14.4,4.2Z"/><polyline class="cls-5" points="639.4 92.1 615.8 97.4 586.3 27.1 546 112.5 516.6 117.3 569.7 4 601.2 4.1"/><path class="cls-4" d="M283.4,4h-23.9V138.4c8-.2,16-.4,23.9-.5V4Z"/><path class="cls-4" d="M443.2,4.1h-23.8c0,41.9,0,83.9-.1,125.8,8-.7,15.9-1.5,23.9-2.2V4.1Z"/><path class="cls-4" d="M443.5,152.3c-8.1,.3-16.1,.6-24.2,.9v44.8h23.8c.1-15.2,.3-30.5,.4-45.7Z"/><g><path class="cls-4" d="M53.19,275.79l-.08-47.87-23.42,40.44h-2L4.28,228.08v47.71H.28v-55.94H3.72l25.02,43.24,25.02-43.24h3.36l.08,55.94h-4Z"/><path class="cls-4" d="M110.65,255.89h-35.88c.4,9.91,7.67,16.62,17.66,16.62,5.27,0,10.15-1.92,13.35-5.83l2.32,2.64c-3.68,4.48-9.43,6.79-15.74,6.79-12.63,0-21.5-8.79-21.5-21.18s8.55-21.18,19.98-21.18,19.9,8.63,19.9,21.02c0,.32-.08,.72-.08,1.12Zm-35.8-3.12h31.97c-.56-9.03-7.11-15.51-15.98-15.51s-15.34,6.39-15.98,15.51Z"/><path class="cls-4" d="M160.43,251.42v24.38h-4v-24.06c0-9.43-5.03-14.39-13.51-14.39-9.83,0-15.82,6.31-15.82,16.22v22.22h-4v-41.72h3.84v9.03c2.8-5.83,8.63-9.35,16.54-9.35,10.15,0,16.94,5.99,16.94,17.66Z"/><path class="cls-4" d="M197.59,273.16c-2.08,2-5.43,2.96-8.55,2.96-7.35,0-11.35-4.32-11.35-11.35v-27.25h-7.67v-3.44h7.67v-9.11h4v9.11h13.27v3.44h-13.27v26.85c0,5.35,2.64,8.31,7.75,8.31,2.48,0,4.8-.8,6.47-2.32l1.68,2.8Z"/><path class="cls-4" d="M238.82,249.34v26.45h-3.84v-7.43c-2.64,4.8-7.75,7.75-15.02,7.75-9.35,0-15.02-4.8-15.02-11.91,0-6.31,4-11.67,15.58-11.67h14.31v-3.36c0-7.75-4.24-11.91-12.39-11.91-5.75,0-10.95,2.16-14.39,5.28l-2-2.88c4.16-3.68,10.23-5.91,16.7-5.91,10.31,0,16.06,5.27,16.06,15.58Zm-4,14.15v-7.83h-14.23c-8.63,0-11.67,3.6-11.67,8.39,0,5.43,4.24,8.79,11.59,8.79s11.91-3.36,14.31-9.35Z"/><path class="cls-4" d="M255.28,216.49h4v59.3h-4v-59.3Z"/><path class="cls-4" d="M343.51,219.85v55.94h-4.08v-26.61h-37.4v26.61h-4.08v-55.94h4.08v25.73h37.4v-25.73h4.08Z"/><path class="cls-4" d="M396.97,255.89h-35.88c.4,9.91,7.67,16.62,17.66,16.62,5.27,0,10.15-1.92,13.35-5.83l2.32,2.64c-3.68,4.48-9.43,6.79-15.74,6.79-12.63,0-21.5-8.79-21.5-21.18s8.55-21.18,19.98-21.18,19.9,8.63,19.9,21.02c0,.32-.08,.72-.08,1.12Zm-35.8-3.12h31.97c-.56-9.03-7.11-15.51-15.98-15.51s-15.34,6.39-15.98,15.51Z"/><path class="cls-4" d="M438.36,249.34v26.45h-3.84v-7.43c-2.64,4.8-7.75,7.75-15.02,7.75-9.35,0-15.02-4.8-15.02-11.91,0-6.31,4-11.67,15.58-11.67h14.31v-3.36c0-7.75-4.24-11.91-12.39-11.91-5.75,0-10.95,2.16-14.39,5.28l-2-2.88c4.16-3.68,10.23-5.91,16.7-5.91,10.31,0,16.06,5.27,16.06,15.58Zm-4,14.15v-7.83h-14.23c-8.63,0-11.67,3.6-11.67,8.39,0,5.43,4.24,8.79,11.59,8.79s11.91-3.36,14.31-9.35Z"/><path class="cls-4" d="M454.82,216.49h4v59.3h-4v-59.3Z"/><path class="cls-4" d="M495.82,273.16c-2.08,2-5.43,2.96-8.55,2.96-7.35,0-11.35-4.32-11.35-11.35v-27.25h-7.67v-3.44h7.67v-9.11h4v9.11h13.27v3.44h-13.27v26.85c0,5.35,2.64,8.31,7.75,8.31,2.48,0,4.8-.8,6.47-2.32l1.68,2.8Z"/><path class="cls-4" d="M544.25,251.42v24.38h-4v-24.06c0-9.43-5.03-14.39-13.51-14.39-9.83,0-15.82,6.31-15.82,16.22v22.22h-4v-59.3h4v26.29c2.88-5.67,8.63-9.03,16.38-9.03,10.15,0,16.94,5.99,16.94,17.66Z"/><path class="cls-4" d="M617.13,260.05h-32.45l-7.11,15.74h-4.4l25.73-55.94h4.08l25.73,55.94h-4.4l-7.19-15.74Zm-1.52-3.44l-14.71-32.29-14.63,32.29h29.33Z"/><path class="cls-4" d="M706.15,251.42v24.38h-4v-24.06c0-9.43-4.88-14.39-13.03-14.39-9.43,0-15.27,6.31-15.27,16.22v22.22h-4v-24.06c0-9.43-4.88-14.39-13.03-14.39-9.43,0-15.26,6.31-15.26,16.22v22.22h-4v-41.72h3.84v8.95c2.72-5.83,8.39-9.27,15.98-9.27s13.03,3.44,15.26,10.07c2.72-6.07,8.79-10.07,16.86-10.07,10.07,0,16.62,5.99,16.62,17.66Z"/><path class="cls-4" d="M757.93,255.89h-35.88c.4,9.91,7.67,16.62,17.66,16.62,5.28,0,10.15-1.92,13.35-5.83l2.32,2.64c-3.68,4.48-9.43,6.79-15.74,6.79-12.63,0-21.5-8.79-21.5-21.18s8.55-21.18,19.98-21.18,19.9,8.63,19.9,21.02c0,.32-.08,.72-.08,1.12Zm-35.8-3.12h31.97c-.56-9.03-7.11-15.51-15.98-15.51s-15.34,6.39-15.98,15.51Z"/><path class="cls-4" d="M790.13,233.76v3.92c-.32,0-.64-.08-.96-.08-9.27,0-14.78,6.15-14.78,16.46v21.74h-4v-41.72h3.84v9.11c2.56-6.07,8.07-9.43,15.9-9.43Z"/><path class="cls-4" d="M799.88,220.73c0-1.76,1.44-3.28,3.28-3.28s3.28,1.44,3.28,3.2-1.44,3.28-3.28,3.28-3.28-1.44-3.28-3.2Zm1.28,13.35h4v41.72h-4v-41.72Z"/><path class="cls-4" d="M817.46,254.94c0-12.47,8.87-21.18,21.1-21.18,6.63,0,12.39,2.56,15.82,7.67l-2.96,2.16c-3.04-4.24-7.67-6.23-12.87-6.23-9.83,0-17.02,7.03-17.02,17.58s7.19,17.58,17.02,17.58c5.2,0,9.83-2,12.87-6.23l2.96,2.16c-3.44,5.04-9.19,7.67-15.82,7.67-12.23,0-21.1-8.79-21.1-21.18Z"/><path class="cls-4" d="M896.5,249.34v26.45h-3.84v-7.43c-2.64,4.8-7.75,7.75-15.02,7.75-9.35,0-15.02-4.8-15.02-11.91,0-6.31,4-11.67,15.59-11.67h14.31v-3.36c0-7.75-4.24-11.91-12.39-11.91-5.75,0-10.95,2.16-14.39,5.28l-2-2.88c4.16-3.68,10.23-5.91,16.7-5.91,10.31,0,16.06,5.27,16.06,15.58Zm-4,14.15v-7.83h-14.23c-8.63,0-11.67,3.6-11.67,8.39,0,5.43,4.24,8.79,11.59,8.79s11.91-3.36,14.31-9.35Z"/></g></svg>