<?xml version="1.0" encoding="utf-8"?>
<!-- Generator: Adobe Illustrator 26.3.1, SVG Export Plug-In . SVG Version: 6.00 Build 0)  -->
<svg version="1.1" id="Layer_1" xmlns="http://www.w3.org/2000/svg" xmlns:xlink="http://www.w3.org/1999/xlink" x="0px" y="0px"
	 viewBox="0 0 374.4 115.2" style="enable-background:new 0 0 374.4 115.2;" xml:space="preserve">
<style type="text/css">
	.st0{fill:#365888;}
	.st1{fill:#FF9F37;}
</style>
<path class="st0" d="M209.1,58.7l-10.7,21.4h-9.8l10.3-20.5C202.3,59.4,205.7,59.1,209.1,58.7L209.1,58.7z M257.9,51.8l13.8,28.4
	h-9.1l-13.2-26.9C252.3,52.8,255.1,52.3,257.9,51.8L257.9,51.8z M234.8,4.1L252,39.4c-2.8,0.7-5.6,1.3-8.4,2l-12.8-26L214.9,47
	c-3.5,0.6-7,1.2-10.6,1.7l22.5-44.7H234.8L234.8,4.1z"/>
<path class="st0" d="M116,61.2v19h-9.6V60.3C109.5,60.7,112.7,60.9,116,61.2L116,61.2z M178.5,61.2v19h-9.6V61.7
	C172.1,61.5,175.3,61.4,178.5,61.2L178.5,61.2z M116,44.9v11.4c-2.7,0-5.4,0-8-0.1l-1.6,0V4.1h9.6v32.1V44.9L116,44.9z M178.5,4.1
	v48.2c-3.2,0.4-6.4,0.7-9.6,1v-8.4v-8.8V4.1H178.5L178.5,4.1z"/>
<path class="st0" d="M28,100.4c-0.3-3.9-0.6-8.6-0.5-11.4h-0.1c-0.9,2.8-2,5.8-3.5,9.6l-5.5,14.1H17L11.8,99c-1.5-4-2.6-7.1-3.4-10
	H8.3c0,3-0.2,7.5-0.5,11.8L7,112.7H5.1l1.9-25.8h2.1l5.6,14.9c1.2,3.3,2.1,5.9,2.9,8.4h0.1c0.7-2.4,1.6-4.9,3-8.3l5.8-14.9h2.2
	l1.8,25.8h-1.8L28,100.4L28,100.4z"/>
<path class="st0" d="M36.7,103.3c0,5.9,3.3,8.2,7.1,8.2c2.7,0,4.1-0.5,5.2-1l0.5,1.5c-0.7,0.4-2.6,1.2-5.9,1.2
	c-5.4,0-8.7-3.9-8.7-9.3c0-6.1,3.6-10,8.4-10c6.1,0,7.3,5.7,7.3,8.3c0,0.5,0,0.8-0.1,1.1H36.7L36.7,103.3z M48.7,101.8
	c0-2.6-1.1-6.5-5.6-6.5c-4.1,0-5.9,3.6-6.2,6.5H48.7L48.7,101.8z"/>
<path class="st0" d="M55.4,98.7c0-1.7-0.1-2.9-0.2-4.4h1.7l0.2,3.3h0.1c1-2.1,3.3-3.8,6.4-3.8c1.8,0,6.5,0.9,6.5,7.8v11h-1.8v-10.9
	c0-3.3-1.3-6.4-5.2-6.4c-2.7,0-4.9,1.8-5.6,4.2c-0.2,0.5-0.3,1.1-0.3,1.6v11.4h-1.8V98.7L55.4,98.7z"/>
<path class="st0" d="M78.8,90.2v4.1h5.3v1.5h-5.3v11.9c0,2.3,0.7,3.8,2.7,3.8c1,0,1.7-0.2,2.1-0.3l0.2,1.4c-0.6,0.3-1.5,0.5-2.6,0.5
	c-1.4,0-2.5-0.5-3.2-1.3c-0.9-1-1.2-2.5-1.2-4.4V95.8h-3.2v-1.5H77v-3.4L78.8,90.2L78.8,90.2z"/>
<path class="st0" d="M99.9,108.3c0,1.5,0.1,2.9,0.3,4.4h-1.7l-0.3-2.6h-0.1c-0.9,1.4-3,3.1-6,3.1c-3.7,0-5.5-2.6-5.5-5.1
	c0-4.2,3.8-6.8,11.4-6.7v-0.5c0-1.8-0.4-5.5-4.8-5.4c-1.6,0-3.4,0.4-4.7,1.4L88,95.4c1.7-1.1,3.8-1.6,5.5-1.6c5.4,0,6.4,4,6.4,7.3
	V108.3L99.9,108.3z M98.1,102.8c-4.1-0.1-9.5,0.5-9.5,4.9c0,2.6,1.8,3.8,3.7,3.8c3.1,0,4.9-1.9,5.5-3.7c0.1-0.4,0.2-0.8,0.2-1.1
	V102.8L98.1,102.8z"/>
<polygon class="st0" points="106,85.5 107.8,85.5 107.8,112.7 106,112.7 106,85.5 "/>
<path class="st0" d="M236.8,103.6l-3.2,9h-1.9l9.5-25.8h1.8l9.5,25.8h-1.9l-3.3-9H236.8L236.8,103.6z M246.6,102.1l-3.2-8.6
	c-0.6-1.8-1-3.1-1.4-4.6H242c-0.4,1.5-0.8,2.8-1.4,4.5l-3.2,8.7H246.6L246.6,102.1z"/>
<path class="st0" d="M256.5,98.7c0-1.7-0.1-2.9-0.2-4.4h1.7l0.2,3.3h0.1c1.2-2.1,3-3.7,6-3.7c2.6,0,4.6,1.7,5.4,4h0.1
	c0.5-1.1,1.2-1.9,1.9-2.5c1.2-1,2.5-1.5,4.5-1.5c1.8,0,6.1,1,6.1,8v10.8h-1.8V102c0-4.1-1.6-6.6-4.9-6.6c-2.3,0-4.2,1.7-4.9,3.6
	c-0.2,0.5-0.4,1.1-0.4,1.8v11.8h-1.8v-11.5c0-3.3-1.6-5.7-4.6-5.7c-2.5,0-4.5,2-5.2,4.1c-0.2,0.5-0.3,1.1-0.3,1.8v11.3h-1.8V98.7
	L256.5,98.7z"/>
<path class="st0" d="M288.6,103.3c0,5.9,3.3,8.2,7.1,8.2c2.7,0,4.1-0.5,5.2-1l0.5,1.5c-0.7,0.4-2.6,1.2-5.9,1.2
	c-5.4,0-8.7-3.9-8.7-9.3c0-6.1,3.6-10,8.4-10c6.1,0,7.3,5.7,7.3,8.3c0,0.5,0,0.8-0.1,1.1H288.6L288.6,103.3z M300.6,101.8
	c0-2.6-1-6.5-5.6-6.5c-4.1,0-5.9,3.6-6.2,6.5H300.6L300.6,101.8z"/>
<path class="st0" d="M307.3,99.8c0-1.8-0.1-3.8-0.2-5.5h1.7l0.1,3.7h0.1c0.8-2.3,2.8-4.1,5.3-4.1c0.2,0,0.5,0,0.7,0.1v1.8
	c-0.3-0.1-0.5-0.1-0.9-0.1c-2.6,0-4.4,2.2-4.9,5.1c-0.1,0.5-0.2,1.2-0.2,1.8v10.1h-1.8V99.8L307.3,99.8z"/>
<path class="st0" d="M321.5,89.1c0,0.8-0.6,1.6-1.6,1.6c-0.9,0-1.4-0.7-1.4-1.6c0-0.8,0.7-1.6,1.5-1.6
	C320.9,87.4,321.5,88.2,321.5,89.1L321.5,89.1z M319,112.7V94.3h1.8v18.4H319L319,112.7z"/>
<path class="st0" d="M340.1,111.9c-0.8,0.4-2.8,1.2-5.5,1.2c-5.4,0-9-3.9-9-9.4c0-5.8,4.1-9.8,9.7-9.8c2.3,0,4.2,0.7,4.9,1.2
	l-0.7,1.5c-0.9-0.5-2.4-1.1-4.4-1.1c-5,0-7.6,3.8-7.6,8.1c0,4.8,3.1,7.9,7.4,7.9c2.2,0,3.7-0.6,4.7-1L340.1,111.9L340.1,111.9z"/>
<path class="st0" d="M356.2,108.3c0,1.5,0.1,2.9,0.3,4.4h-1.7l-0.3-2.6h-0.1c-0.9,1.4-3,3.1-6,3.1c-3.7,0-5.5-2.6-5.5-5.1
	c0-4.2,3.8-6.8,11.4-6.7v-0.5c0-1.8-0.4-5.5-4.8-5.4c-1.6,0-3.4,0.4-4.7,1.4l-0.6-1.3c1.7-1.1,3.8-1.6,5.5-1.6c5.4,0,6.4,4,6.4,7.3
	V108.3L356.2,108.3z M354.4,102.8c-4.1-0.1-9.5,0.5-9.5,4.9c0,2.6,1.8,3.8,3.7,3.8c3.1,0,4.9-1.9,5.5-3.7c0.1-0.4,0.2-0.8,0.2-1.1
	V102.8L354.4,102.8z"/>
<polygon class="st0" points="124.7,86.9 124.7,98.2 139.2,98.2 139.2,86.9 141,86.9 141,112.7 139.2,112.7 139.2,99.8 124.7,99.8 
	124.7,112.7 122.8,112.7 122.8,86.9 124.7,86.9 "/>
<path class="st0" d="M147.6,103.3c0,5.9,3.3,8.2,7.1,8.2c2.7,0,4.1-0.5,5.2-1l0.5,1.5c-0.7,0.4-2.6,1.2-5.9,1.2
	c-5.4,0-8.7-3.9-8.7-9.3c0-6.1,3.6-10,8.4-10c6.1,0,7.3,5.7,7.3,8.3c0,0.5,0,0.8-0.1,1.1H147.6L147.6,103.3z M159.5,101.8
	c0-2.6-1-6.5-5.6-6.5c-4.1,0-5.9,3.6-6.2,6.5H159.5L159.5,101.8z"/>
<path class="st0" d="M177.9,108.3c0,1.5,0.1,2.9,0.3,4.4h-1.7l-0.3-2.6h-0.1c-0.9,1.4-3,3.1-6,3.1c-3.7,0-5.5-2.6-5.5-5.1
	c0-4.2,3.8-6.8,11.4-6.7v-0.5c0-1.8-0.3-5.5-4.8-5.4c-1.6,0-3.4,0.4-4.7,1.4l-0.6-1.3c1.7-1.1,3.8-1.6,5.5-1.6c5.4,0,6.4,4,6.4,7.3
	V108.3L177.9,108.3z M176,102.8c-4.1-0.1-9.5,0.5-9.5,4.9c0,2.6,1.8,3.8,3.7,3.8c3.1,0,4.9-1.9,5.5-3.7c0.1-0.4,0.2-0.8,0.2-1.1
	V102.8L176,102.8z"/>
<polygon class="st0" points="183.9,85.5 185.8,85.5 185.8,112.7 183.9,112.7 183.9,85.5 "/>
<path class="st0" d="M194.8,90.2v4.1h5.3v1.5h-5.3v11.9c0,2.3,0.7,3.8,2.7,3.8c1,0,1.7-0.2,2.1-0.3l0.2,1.4
	c-0.6,0.3-1.5,0.5-2.6,0.5c-1.4,0-2.5-0.5-3.2-1.3c-0.9-1-1.2-2.5-1.2-4.4V95.8h-3.2v-1.5h3.2v-3.4L194.8,90.2L194.8,90.2z"/>
<path class="st0" d="M204.2,85.5h1.8v12.1h0.1c0.5-1,1.4-2,2.6-2.7c1.1-0.7,2.3-1,3.8-1c1.8,0,6.5,0.9,6.5,7.7v11.1h-1.8v-10.9
	c0-3.3-1.3-6.4-5.1-6.4c-2.6,0-4.9,1.9-5.7,4.2c-0.2,0.5-0.3,1.1-0.3,1.8v11.3h-1.8V85.5L204.2,85.5z"/>
<polygon class="st0" points="4.4,80.2 4.4,4.1 13.6,4.1 44.8,52.5 75.6,4.1 84.7,4.1 84.7,80.2 75.1,80.2 75.1,21.8 44.5,70 
	13.8,22 13.8,80.2 4.4,80.2 "/>
<g>
	<path class="st0" d="M363.8,79.7c-0.9,0-1.6-0.3-2.2-0.9c-0.6-0.6-0.9-1.3-0.9-2.2c0-0.9,0.3-1.6,0.9-2.2c0.6-0.6,1.3-0.9,2.2-0.9
		c0.9,0,1.6,0.3,2.2,0.9c0.6,0.6,0.9,1.3,0.9,2.2c0,0.9-0.3,1.6-0.9,2.2C365.4,79.4,364.6,79.7,363.8,79.7z M363.8,73.8
		c-0.8,0-1.4,0.3-2,0.8c-0.5,0.5-0.8,1.2-0.8,2s0.3,1.4,0.8,2c0.5,0.5,1.2,0.8,2,0.8s1.4-0.3,2-0.8c0.5-0.5,0.8-1.2,0.8-2
		s-0.3-1.4-0.8-2C365.2,74.1,364.5,73.8,363.8,73.8z M365.3,78.6h-0.7l-0.4-1c-0.2-0.5-0.5-0.7-0.7-0.7h-0.4v1.7h-0.6v-4h1.1
		c0.5,0,0.8,0.1,1.1,0.3c0.3,0.2,0.4,0.5,0.4,0.8c0,0.3-0.1,0.5-0.3,0.7s-0.4,0.3-0.7,0.4v0c0.2,0,0.4,0.3,0.7,0.7L365.3,78.6z
		 M363.1,75.1v1.4h0.6c0.5,0,0.8-0.2,0.8-0.7c0-0.2-0.1-0.4-0.2-0.5c-0.1-0.1-0.4-0.2-0.7-0.2H363.1z"/>
</g>
<g>
	<path class="st0" d="M323.7,58.2c-2.7-2.6-5.5-5-8.5-7.2C304.6,56.6,293,63.7,284,71c-3,2.5-6.7,4.9-7.5,8.9
		c2.2,1.5,4.8,0.1,6.8-0.5c2.3-0.7,4.5-1.4,6.6-2.3c12.3-5,23.7-11.6,33.6-18.7C323.6,58.3,323.6,58.3,323.7,58.2z"/>
	<path class="st0" d="M341.7,41.9c-1.3-0.8-3-0.7-4.3-0.5c-5.9,1.1-11.5,4.7-16.6,6.6c1.9,2.2,4.4,3.8,6.6,5.7
		c1.2-0.7,2.7-1.1,4.2-1.1c0.2,0,0.5,0,0.7,0C335.6,49.4,340.8,46.9,341.7,41.9z"/>
	<path class="st0" d="M356.4,2l-73.2,0c1.8,1.3,3.7,3.5,4.2,5.9c7.6-2.6,15.5-2,21.3,1.2c29.2,6.4,25.6,15,13.8,22.2
		c3.8,3.8,9.4,6.3,15.9,6.8c2.7,0.2,7.1-0.5,7.7,2c0.6,2.6-2.9,6.5-4.3,7.9c-2.2,2.3-4.6,4.1-6.2,5.7c2.6,1.5,4.3,4.2,4.3,7.4
		c0,4.7-3.8,8.5-8.5,8.5c-4.2,0-7.6-3-8.3-7c-10,6.6-19.8,13.1-31.9,17.5h65.1v-0.5L356.4,2z"/>
</g>
<g>
	<path class="st1" d="M271.5,35.2c-46.1,13.9-115.9,23-163.5,22c-5.1,0.1-10.1,0.2-15,0.2c3,0.6,6.3,1.1,9.9,1.5
		C151.8,65,234.6,58.4,287.8,44c47.9-12.9,53.4-26.4,23.2-33.4C314.5,17.7,300.1,26.6,271.5,35.2L271.5,35.2z"/>
</g>
</svg>
